<?xml version="1.0" standalone="no"?>
<!DOCTYPE svg PUBLIC "-//W3C//DTD SVG 20010904//EN"
 "http://www.w3.org/TR/2001/REC-SVG-20010904/DTD/svg10.dtd">
<svg version="1.0" xmlns="http://www.w3.org/2000/svg"
 width="424.000000pt" height="250.000000pt" viewBox="0 0 424.000000 250.000000"
 preserveAspectRatio="xMidYMid meet">

<g transform="translate(0.000000,250.000000) scale(0.100000,-0.100000)"
fill="#000000" stroke="none">
<path d="M2655 2205 c-5 -2 -22 -6 -36 -9 -15 -3 -30 -13 -33 -22 -3 -9 0 -66
8 -127 15 -112 31 -357 40 -602 3 -100 2 -122 -6 -95 -58 194 -111 292 -223
405 -44 45 -107 100 -140 122 -237 159 -581 255 -949 267 -67 2 -88 1 -48 -1
73 -4 84 -10 57 -33 -8 -7 -13 -16 -10 -20 3 -5 -4 -11 -15 -15 -11 -4 -18
-10 -15 -15 3 -5 1 -11 -4 -14 -5 -4 -12 4 -14 16 l-4 23 -2 -22 c-1 -16 -7
-23 -21 -23 -11 0 -19 -5 -17 -12 1 -7 -5 -12 -13 -13 -8 0 -15 -7 -15 -15 0
-10 -11 -16 -30 -16 -16 -1 -38 -2 -47 -3 -10 -1 -17 -7 -15 -13 1 -9 -12 -13
-41 -14 -24 0 -47 -7 -52 -14 -6 -10 -9 -9 -13 1 -4 10 -6 10 -6 2 -1 -7 -10
-13 -21 -13 -11 0 -20 6 -20 13 0 9 -3 8 -9 -2 -7 -10 -10 -10 -13 -1 -2 8
-22 13 -49 14 -28 1 -43 5 -42 13 2 6 -5 12 -15 12 -46 1 -77 9 -74 19 1 7 -2
12 -8 12 -5 0 -10 -8 -11 -17 -1 -12 -4 -10 -9 7 -6 20 -8 14 -9 -26 -2 -78
33 -177 77 -223 l37 -40 65 14 c112 23 252 36 345 33 l90 -3 7 -70 c3 -38 11
-157 17 -264 7 -107 12 -196 14 -197 1 -1 67 6 147 17 80 10 153 19 163 19 15
0 17 10 17 73 0 41 3 142 7 226 l6 152 31 -7 c67 -14 215 -68 301 -109 172
-82 319 -199 361 -289 19 -39 10 -37 209 -56 61 -6 171 -22 245 -34 74 -13
137 -21 140 -19 10 9 28 433 26 603 -2 151 -5 182 -23 227 -49 124 -134 183
-258 182 -38 0 -74 -2 -80 -4z"/>
<path d="M745 2090 c-3 -6 1 -7 9 -4 18 7 21 14 7 14 -6 0 -13 -4 -16 -10z"/>
<path d="M1750 1163 c-469 -44 -777 -109 -1130 -238 -131 -48 -403 -165 -397
-171 1 -2 50 12 107 30 58 19 175 50 260 70 150 34 409 80 416 74 1 -2 9 -36
18 -75 35 -169 133 -301 275 -372 86 -44 91 -51 91 -150 1 -42 2 -44 15 -27 7
10 18 15 24 11 6 -3 18 10 28 30 14 28 22 35 38 31 14 -4 25 1 33 15 10 16 19
19 45 14 46 -9 252 12 365 36 321 70 545 214 639 411 24 50 31 58 53 56 l25
-3 8 -270 c4 -148 10 -271 12 -274 3 -2 11 4 19 14 7 10 18 15 24 11 6 -3 19
5 30 19 11 14 24 25 29 25 5 0 17 15 26 34 9 19 24 37 34 40 10 4 40 45 66 92
42 76 48 95 54 165 3 44 10 82 15 85 9 6 220 -50 322 -86 76 -26 78 -25 33 6
-21 14 -36 28 -34 30 3 3 74 -18 158 -46 174 -58 414 -171 537 -254 45 -30 82
-53 82 -51 0 6 -148 111 -212 152 -28 17 -114 60 -192 94 -154 69 -206 96
-206 110 0 8 -164 63 -267 89 -29 8 -53 17 -53 22 0 4 -9 8 -19 8 -11 0 -23 5
-26 10 -4 6 6 10 22 10 31 0 210 -40 288 -64 52 -16 76 -14 31 3 -14 6 -26 13
-26 15 0 6 39 -6 155 -49 55 -20 124 -46 154 -56 61 -23 182 -82 261 -129 73
-43 76 -29 2 17 -33 21 -68 44 -78 51 -17 11 -17 11 3 2 28 -13 36 -13 28 0
-4 6 -46 30 -95 55 -48 24 -103 55 -123 68 -45 31 -361 135 -547 181 -250 61
-504 103 -775 126 -109 9 -559 12 -645 3z m-130 -283 c0 -80 -3 -100 -14 -100
-12 0 -14 15 -10 78 10 153 24 166 24 22z m539 82 l35 -8 -70 -36 c-114 -59
-259 -105 -421 -132 l-33 -5 0 93 c0 51 3 96 8 101 8 9 432 -2 481 -13z m-789
-78 c0 -41 -2 -74 -3 -74 -12 0 -137 45 -162 58 -51 26 -106 65 -100 70 7 7
247 30 258 25 4 -2 7 -38 7 -79z m2508 -139 c-6 -6 -98 39 -98 48 0 4 23 -4
51 -19 28 -14 49 -27 47 -29z"/>
</g>
</svg>
